<?xml version="1.0" encoding="iso-8859-1"?>
<!-- Generator: Adobe Illustrator 19.0.0, SVG Export Plug-In . SVG Version: 6.00 Build 0)  -->
<svg version="1.1" id="Capa_1" xmlns="http://www.w3.org/2000/svg" xmlns:xlink="http://www.w3.org/1999/xlink" x="0px" y="0px"
	 viewBox="0 0 512 512" style="enable-background:new 0 0 512 512;" xml:space="preserve">
<linearGradient id="SVGID_1_" gradientUnits="userSpaceOnUse" x1="70.2695" y1="258" x2="441.7305" y2="258" gradientTransform="matrix(1 0 0 -1 0 514)">
	<stop  offset="0" style="stop-color:#DF361A"/>
	<stop  offset="1" style="stop-color:#E48240"/>
</linearGradient>
<path style="fill:url(#SVGID_1_);" d="M434.961,160.556L357.267,10.79C353.828,4.161,346.982,0,339.514,0h-75.743
	c-4.55,0-8.964,1.552-12.514,4.399L89.737,133.957c-16.002,12.836-22.975,33.951-17.763,53.792
	c6.544,24.916,30.771,41.442,56.36,38.45l61.268-7.173l-51.484,69.63c-15.54,21.017-15.744,49.406-0.509,70.645L163.218,395h-27.182
	c-9.109,0-17.068,6.155-19.358,14.972l-20,77C93.393,499.625,102.955,512,116.037,512h280c13.073,0,22.646-12.366,19.358-25.028
	l-20-77c-2.29-8.817-10.249-14.972-19.358-14.972h-19.991l80.55-182.597C443.973,195.68,443.378,176.783,434.961,160.556z
	 M370.178,472H141.895l9.61-37c24.136,0,184.758,0,209.063,0L370.178,472z M399.999,196.258L312.326,395h-99.88l-42.335-59.015
	c-5.078-7.08-5.01-16.543,0.17-23.548l78.933-106.754c10.384-14.045-1.049-33.793-18.407-31.755L123.683,186.47
	c-11.864,1.392-18.354-13.742-8.917-21.312L270.801,40h56.557l72.095,138.975C402.259,184.384,402.458,190.684,399.999,196.258z"/>
<g>
</g>
<g>
</g>
<g>
</g>
<g>
</g>
<g>
</g>
<g>
</g>
<g>
</g>
<g>
</g>
<g>
</g>
<g>
</g>
<g>
</g>
<g>
</g>
<g>
</g>
<g>
</g>
<g>
</g>
</svg>
